<svg width="27" height="23" viewBox="0 0 27 23" fill="none" xmlns="http://www.w3.org/2000/svg">
<path d="M14.2265 6.49683H13.9811V6.73893L13.9786 11.8595C13.9786 12.1173 14.083 12.3642 14.2683 12.547L17.9808 16.2089L18.155 16.3808L18.3281 16.2089L19.3774 15.1739L19.5517 15.0032L19.3774 14.8325L15.9545 11.4551L15.957 6.73893V6.49683H14.2265V6.49683Z" fill="white" stroke="white" stroke-width="0.4"/>
<path d="M7.23725 9.42397C8.04234 5.52971 11.5315 2.58934 15.7116 2.58934C20.4857 2.58934 24.37 6.42065 24.37 11.1296C24.37 15.8386 20.4857 19.6699 15.7116 19.6699C13.0275 19.6699 10.5398 18.4714 8.88425 16.3821L8.73329 16.192L8.53938 16.3409L7.36979 17.2403L7.17588 17.3904L7.32807 17.5805C9.3592 20.1456 12.4163 21.6176 15.7116 21.6176C21.5755 21.6176 26.3447 16.9123 26.3447 11.1296C26.3447 5.34692 21.5755 0.641602 15.7116 0.641602C10.438 0.641602 6.06152 4.45234 5.23188 9.42397H1.76361L2.18211 9.83676L5.89216 13.4962L6.06643 13.6681L6.23947 13.4962L9.94952 9.83676L10.368 9.42397H7.23725V9.42397Z" fill="white" stroke="white" stroke-width="0.4"/>
</svg>
