<svg width="41" height="40" viewBox="0 0 41 40" fill="none" xmlns="http://www.w3.org/2000/svg">
<path d="M0.5 8C0.5 3.58172 4.08172 0 8.5 0H32.5C36.9183 0 40.5 3.58172 40.5 8V32C40.5 36.4183 36.9183 40 32.5 40H8.5C4.08172 40 0.5 36.4183 0.5 32V8Z" fill="#0865C8"/>
<path d="M21.3878 16.5765V13.8214C21.3878 13.061 22.0049 12.4439 22.7653 12.4439H24.1429V9H21.3878C19.1052 9 17.2551 10.8501 17.2551 13.1327V16.5765H14.5V20.0204H17.2551V31.0408H21.3878V20.0204H24.1429L25.5204 16.5765H21.3878Z" fill="white"/>
</svg>
