<svg width="41" height="40" viewBox="0 0 41 40" fill="none" xmlns="http://www.w3.org/2000/svg">
<path d="M0.5 8C0.5 3.58172 4.08172 0 8.5 0H32.5C36.9183 0 40.5 3.58172 40.5 8V32C40.5 36.4183 36.9183 40 32.5 40H8.5C4.08172 40 0.5 36.4183 0.5 32V8Z" fill="#0865C8"/>
<path d="M29.0713 19V16H27.5713V19H24.5713V20.5H27.5713V23.5H29.0713V20.5H32.0713V19H29.0713Z" fill="white"/>
<path d="M15.5713 18V21H19.8148C19.1953 22.746 17.5273 24 15.5713 24C13.0903 24 11.0713 21.981 11.0713 19.5C11.0713 17.019 13.0903 15 15.5713 15C16.6468 15 17.6818 15.3855 18.4858 16.086L20.4568 13.824C19.1068 12.648 17.3728 12 15.5713 12C11.4358 12 8.07129 15.3645 8.07129 19.5C8.07129 23.6355 11.4358 27 15.5713 27C19.7068 27 23.0713 23.6355 23.0713 19.5V18H15.5713Z" fill="white"/>
</svg>
