<svg width="17" height="17" viewBox="0 0 17 17" fill="none" xmlns="http://www.w3.org/2000/svg">
<path d="M17 14.2651V9.33558C17 7.72311 17 6.91692 16.6685 6.2043C16.3369 5.49168 15.7126 4.95605 14.4641 3.88479L13.5196 3.07447C11.1307 1.02482 9.93631 0 8.5 0C7.06369 0 5.86925 1.02482 3.48036 3.07447L2.53592 3.88479C1.28735 4.95605 0.663076 5.49168 0.331538 6.2043C0 6.91692 0 7.72311 0 9.33558V14.2651C0 15.1147 0 15.5394 0.143782 15.8745C0.335495 16.3212 0.703214 16.6762 1.16604 16.8613C1.51317 17 1.95322 17 2.83333 17H3.14814C3.73368 17 4.02646 17 4.26666 16.9379C4.9185 16.7693 5.42765 16.2778 5.6023 15.6486C5.66667 15.4168 5.66667 15.1342 5.66667 14.569V12.4419C5.66667 10.9315 6.93515 9.70706 8.5 9.70706C10.0648 9.70706 11.3333 10.9315 11.3333 12.4419V14.569C11.3333 15.1342 11.3333 15.4168 11.3976 15.6486C11.5724 16.2778 12.0815 16.7693 12.7334 16.9379C12.9735 17 13.2663 17 13.8519 17H14.1667C15.0468 17 15.4868 17 15.834 16.8613C16.2968 16.6762 16.6645 16.3212 16.8563 15.8745C17 15.5394 17 15.1147 17 14.2651Z" fill="white"/>
</svg>
