<svg width="41" height="40" viewBox="0 0 41 40" fill="none" xmlns="http://www.w3.org/2000/svg">
<path d="M0.5 8C0.5 3.58172 4.08172 0 8.5 0H32.5C36.9183 0 40.5 3.58172 40.5 8V32C40.5 36.4183 36.9183 40 32.5 40H8.5C4.08172 40 0.5 36.4183 0.5 32V8Z" fill="#0865C8"/>
<path d="M24.9505 20.9796C24.9505 23.1724 23.1727 24.9502 20.9799 24.9502C18.7871 24.9502 17.0093 23.1724 17.0093 20.9796C17.0093 18.7868 18.7871 17.009 20.9799 17.009C23.1727 17.009 24.9505 18.7868 24.9505 20.9796Z" fill="white"/>
<path d="M27.6854 8.97949H14.2736C11.3543 8.97949 8.97949 11.3543 8.97949 14.2736V27.6854C8.97949 30.6047 11.3543 32.9795 14.2736 32.9795H27.6854C30.6047 32.9795 32.9795 30.6047 32.9795 27.6854V14.2736C32.9795 11.3543 30.6047 8.97949 27.6854 8.97949ZM20.9795 27.5971C17.3305 27.5971 14.3618 24.6285 14.3618 20.9795C14.3618 17.3305 17.3305 14.3618 20.9795 14.3618C24.6285 14.3618 27.5971 17.3305 27.5971 20.9795C27.5971 24.6285 24.6285 27.5971 20.9795 27.5971ZM28.5677 14.7148C27.8367 14.7148 27.2442 14.1223 27.2442 13.3913C27.2442 12.6602 27.8367 12.0677 28.5677 12.0677C29.2988 12.0677 29.8913 12.6602 29.8913 13.3913C29.8913 14.1223 29.2988 14.7148 28.5677 14.7148Z" fill="white"/>
</svg>
