<svg width="48" height="48" viewBox="0 0 48 48" fill="none" xmlns="http://www.w3.org/2000/svg">
<circle cx="24" cy="24" r="23.5" stroke="white"/>
<path fill-rule="evenodd" clip-rule="evenodd" d="M32.3257 23.2625C32.7317 23.8705 32.9646 24.575 33 25.3023L32.9734 25.4862C33.004 26.4815 32.6701 27.4543 32.033 28.2264C31.2193 29.1 30.1069 29.6457 28.91 29.7585C25.9617 30.0805 22.9863 30.0805 20.038 29.7585C18.8585 29.638 17.7656 29.0925 16.9683 28.2264C16.3206 27.4654 15.9767 26.4972 16.0012 25.5037V25.3811C16.05 24.6321 16.3012 23.9096 16.7287 23.2888L16.7997 23.2012C17.2443 22.7034 17.5501 22.1 17.6869 21.4503V20.6974V19.6468C17.8127 19.3305 18.1376 19.1366 18.4799 19.1734C18.8222 19.2103 19.097 19.4688 19.1508 19.8044V20.6798V21.6078C19.1542 21.6399 19.1542 21.6721 19.1508 21.7041C18.9661 22.6073 18.5438 23.4467 17.9264 24.138C17.6887 24.5117 17.5541 24.9402 17.5361 25.3811V25.5737C17.5164 26.1938 17.7243 26.8001 18.1216 27.2809C18.6725 27.8423 19.4091 28.1902 20.1977 28.2614C23.052 28.5679 25.9315 28.5679 28.7858 28.2614C29.596 28.1881 30.3506 27.8235 30.9062 27.2371C31.284 26.7677 31.4819 26.1818 31.4651 25.5825V25.3811C31.4469 24.9388 31.3157 24.5081 31.0836 24.1292C30.4406 23.4458 29.9935 22.6057 29.7883 21.6954C29.7849 21.6634 29.7849 21.6311 29.7883 21.5991V20.6623V19.7869C29.531 17.1429 26.8606 15.5058 24.5361 15.5058C23.5479 15.5036 22.5759 15.7539 21.7148 16.2325C21.4764 16.3739 21.1788 16.3761 20.9383 16.2381C20.6978 16.1002 20.5524 15.844 20.5589 15.5696C20.5654 15.2951 20.7228 15.0459 20.9695 14.9192C22.0365 14.3244 23.2397 14.008 24.4651 14C27.5348 14 30.9772 16.1537 31.3675 19.6118V20.6448V21.4152C31.5008 22.0662 31.807 22.6704 32.2548 23.1662C32.2813 23.1961 32.305 23.2284 32.3257 23.2625ZM24.7987 32.4308C25.3277 32.3531 25.803 32.0723 26.1193 31.6507H26.1283C26.4017 31.3275 26.8913 31.2822 27.2219 31.5495C27.5525 31.8168 27.5988 32.2954 27.3254 32.6186C26.6514 33.4802 25.6087 33.9899 24.4991 34C23.3928 33.9872 22.3539 33.4778 21.6819 32.6186C21.4085 32.2954 21.4548 31.8168 21.7854 31.5495C22.1159 31.2822 22.6056 31.3275 22.879 31.6507C22.9991 31.8076 23.1415 31.9469 23.302 32.0642C23.731 32.3765 24.2698 32.5084 24.7987 32.4308Z" fill="white"/>
</svg>
