<svg width="24" height="25" viewBox="0 0 24 25" fill="none" xmlns="http://www.w3.org/2000/svg">
<g clip-path="url(#clip0)">
<path d="M14.8281 9.67164C14.6331 9.47664 14.3161 9.47664 14.1211 9.67164C13.9261 9.86664 13.9261 10.1846 14.1211 10.3787C14.6871 10.9447 15.0001 11.6977 15.0001 12.4997C15.0001 14.1536 13.654 15.4997 12.0001 15.4997C11.1981 15.4997 10.4451 15.1877 9.87905 14.6207C9.68405 14.4257 9.36704 14.4257 9.17204 14.6207C8.97704 14.8147 8.97704 15.1327 9.17204 15.3277C9.92602 16.0837 10.931 16.4997 12.0001 16.4997C14.206 16.4997 16 14.7057 16 12.4997C16 11.4306 15.5841 10.4256 14.8281 9.67164Z" fill="#3C3A36"/>
<path d="M12.6971 8.56863C12.47 8.52865 12.2381 8.49963 12.0001 8.49963C9.79409 8.49963 8.00009 10.2936 8.00009 12.4996C8.00009 12.7376 8.02911 12.9696 8.07008 13.1966C8.11306 13.4386 8.32409 13.6096 8.56109 13.6096C8.59011 13.6096 8.61908 13.6076 8.64908 13.6016C8.92006 13.5536 9.10208 13.2936 9.05408 13.0226C9.02309 12.8526 9.00008 12.6796 9.00008 12.4996C9.00008 10.8456 10.3461 9.49962 12.0001 9.49962C12.1801 9.49962 12.3531 9.52263 12.5231 9.55263C12.7891 9.60663 13.0541 9.41862 13.1021 9.14763C13.1501 8.87665 12.9681 8.61663 12.6971 8.56863Z" fill="#3C3A36"/>
<path d="M23.881 12.1766C23.768 12.0426 21.063 8.88564 17.332 6.95266C17.09 6.82567 16.785 6.92167 16.658 7.16767C16.531 7.41269 16.627 7.71466 16.873 7.84169C19.747 9.32968 22.043 11.6517 22.828 12.4997C21.636 13.7907 16.945 18.4997 12 18.4997C10.322 18.4997 8.63102 18.0947 6.97202 17.2947C6.72602 17.1737 6.42504 17.2787 6.30504 17.5277C6.18405 17.7757 6.28905 18.0747 6.53805 18.1947C8.33303 19.0617 10.171 19.4997 12.0001 19.4997C18.1611 19.4997 23.6511 13.0957 23.8821 12.8227C24.04 12.6366 24.039 12.3636 23.881 12.1766Z" fill="#3C3A36"/>
<path d="M15.281 6.07563C14.143 5.69262 13.039 5.49963 12 5.49963C5.83901 5.49963 0.349021 11.9036 0.118022 12.1766C-0.0279937 12.3486 -0.0399937 12.5987 0.0900373 12.7856C0.159037 12.8846 1.81203 15.2316 4.67703 17.1346C4.76201 17.1916 4.85703 17.2186 4.95303 17.2186C5.11404 17.2186 5.27304 17.1406 5.36904 16.9936C5.52204 16.7647 5.45904 16.4536 5.22903 16.3016C3.12505 14.9026 1.68505 13.2136 1.14604 12.5267C2.29705 11.2766 7.01904 6.49966 12 6.49966C12.931 6.49966 13.928 6.67568 14.962 7.02265C15.224 7.11663 15.508 6.97165 15.595 6.70863C15.683 6.44665 15.543 6.16366 15.281 6.07563Z" fill="#3C3A36"/>
<path d="M20.853 3.64662C20.658 3.45162 20.341 3.45162 20.146 3.64662L3.14607 20.6466C2.95107 20.8416 2.95107 21.1586 3.14607 21.3536C3.24408 21.4506 3.37205 21.4996 3.50007 21.4996C3.62808 21.4996 3.75605 21.4506 3.85308 21.3536L20.853 4.35363C21.048 4.15863 21.048 3.84162 20.853 3.64662Z" fill="#3C3A36"/>
</g>
<defs>
<clipPath id="clip0">
<rect width="24" height="24" fill="white" transform="translate(0 0.5)"/>
</clipPath>
</defs>
</svg>
