<svg width="48" height="48" viewBox="0 0 48 48" fill="none" xmlns="http://www.w3.org/2000/svg">
<g clip-path="url(#clip0)">
<path d="M24 44.2266C18.5973 44.2266 13.5179 42.1226 9.69759 38.3023C5.87728 34.4821 3.77344 29.4027 3.77344 24C3.77344 20.727 4.5735 17.4758 6.08709 14.5978C7.55194 11.8126 9.68213 9.37087 12.2473 7.53647C12.985 7.00884 13.803 8.15278 13.0653 8.68031C10.6776 10.3877 8.69503 12.6603 7.33172 15.2524C5.92388 17.9293 5.17969 20.9542 5.17969 24C5.17969 34.3776 13.6224 42.8203 24 42.8203C34.3776 42.8203 42.8203 34.3776 42.8203 24C42.8203 13.6224 34.3776 5.17969 24 5.17969C21.5623 5.17969 19.1907 5.63869 16.951 6.54403C16.1101 6.88378 15.5831 5.58009 16.4241 5.24025C18.8319 4.26694 21.3809 3.77344 24 3.77344C29.4027 3.77344 34.4821 5.87738 38.3024 9.69769C42.1227 13.518 44.2266 18.5973 44.2266 24C44.2266 29.4027 42.1227 34.4821 38.3024 38.3023C34.4821 42.1226 29.4027 44.2266 24 44.2266Z" fill="white"/>
<path d="M24 48C17.5894 48 11.5624 45.5035 7.02938 40.9706C2.49647 36.4375 0 30.4106 0 24C0 17.5894 2.49647 11.5625 7.02938 7.02938C11.5624 2.49647 17.5894 0 24 0C30.4106 0 36.4376 2.49647 40.9706 7.02938C45.5035 11.5625 48 17.5894 48 24C48 27.8416 47.1194 31.5119 45.3829 34.9092C43.7267 38.1492 41.3088 41.019 38.3907 43.2086C37.6655 43.7533 36.8213 42.6281 37.5468 42.0838C40.2947 40.022 42.5714 37.3197 44.1307 34.2692C45.7651 31.0719 46.5938 27.6169 46.5938 24C46.5938 17.9649 44.2436 12.2912 39.9762 8.02378C35.7088 3.75637 30.0351 1.40625 24 1.40625C17.9649 1.40625 12.2912 3.75637 8.02378 8.02378C3.75637 12.2912 1.40625 17.9649 1.40625 24C1.40625 30.0351 3.75637 35.7088 8.02378 39.9762C12.2912 44.2436 17.9649 46.5938 24 46.5938C27.4411 46.5938 30.7447 45.8404 33.819 44.3544C34.6357 43.9599 35.2476 45.2259 34.4309 45.6205C31.1643 47.1995 27.6548 48 24 48Z" fill="white"/>
<path d="M17.8956 33.9429C16.9334 33.9429 16.1382 33.1372 16.1382 32.1826V22.0311C16.1382 21.1242 17.5444 21.1242 17.5444 22.0311V32.1826C17.5444 32.4511 17.8388 32.6211 18.0713 32.4868L32.2442 24.3041C32.4767 24.1699 32.4767 23.8298 32.2442 23.6957L18.0713 15.513C17.8388 15.3787 17.5444 15.5487 17.5444 15.8172V18.0936C17.5444 19.0006 16.1382 19.0006 16.1382 18.0936V15.8172C16.1382 14.4921 17.6262 13.6321 18.7744 14.2952L32.9474 22.4779C34.0951 23.1406 34.0955 24.8589 32.9474 25.522L18.7744 33.7047C18.4993 33.8635 18.1974 33.9429 17.8956 33.9429Z" fill="white"/>
</g>
<defs>
<clipPath id="clip0">
<rect width="48" height="48" fill="white"/>
</clipPath>
</defs>
</svg>
