<svg width="26" height="27" viewBox="0 0 26 27" fill="none" xmlns="http://www.w3.org/2000/svg">
<path d="M11.6018 26.416C11.2818 26.416 11.0098 26.304 10.7858 26.08C10.5618 25.856 10.4498 25.584 10.4498 25.264V15.904H1.23381C0.913813 15.904 0.641813 15.792 0.417813 15.568C0.193813 15.344 0.0818126 15.056 0.0818126 14.704V12.208C0.0818126 11.856 0.193813 11.584 0.417813 11.392C0.641813 11.168 0.913813 11.056 1.23381 11.056H10.4498V1.936C10.4498 1.584 10.5618 1.312 10.7858 1.12C11.0098 0.895999 11.2818 0.783998 11.6018 0.783998H14.3858C14.7378 0.783998 15.0098 0.895999 15.2018 1.12C15.4258 1.312 15.5378 1.584 15.5378 1.936V11.056H24.7538C25.1058 11.056 25.3778 11.168 25.5698 11.392C25.7938 11.584 25.9058 11.856 25.9058 12.208V14.704C25.9058 15.056 25.7938 15.344 25.5698 15.568C25.3458 15.792 25.0738 15.904 24.7538 15.904H15.5378V25.264C15.5378 25.584 15.4258 25.856 15.2018 26.08C15.0098 26.304 14.7378 26.416 14.3858 26.416H11.6018Z" fill="white"/>
</svg>
