<svg width="24" height="25" viewBox="0 0 24 25" fill="none" xmlns="http://www.w3.org/2000/svg">
<g clip-path="url(#clip0)">
<path d="M14.8281 9.67164C14.6331 9.47664 14.316 9.47664 14.121 9.67164C13.926 9.86664 13.926 10.1846 14.121 10.3787C14.6871 10.9447 15 11.6977 15 12.4997C15 14.1536 13.654 15.4997 12 15.4997C11.1981 15.4997 10.4451 15.1877 9.87905 14.6207C9.68405 14.4257 9.36703 14.4257 9.17203 14.6207C8.97703 14.8147 8.97703 15.1327 9.17203 15.3277C9.92601 16.0837 10.931 16.4997 12 16.4997C14.206 16.4997 16 14.7057 16 12.4997C16 11.4306 15.5841 10.4256 14.8281 9.67164Z" fill="#3C3A36"/>
<path d="M12.6971 8.56863C12.47 8.52865 12.238 8.49963 12.0001 8.49963C9.79408 8.49963 8.00008 10.2936 8.00008 12.4996C8.00008 12.7376 8.02909 12.9696 8.07006 13.1966C8.11304 13.4386 8.32408 13.6096 8.56108 13.6096C8.59009 13.6096 8.61906 13.6076 8.64906 13.6016C8.92005 13.5536 9.10206 13.2936 9.05406 13.0226C9.02308 12.8526 9.00006 12.6796 9.00006 12.4996C9.00006 10.8456 10.3461 9.49962 12.0001 9.49962C12.1801 9.49962 12.3531 9.52263 12.523 9.55263C12.7891 9.60663 13.0541 9.41862 13.1021 9.14763C13.1501 8.87665 12.9681 8.61663 12.6971 8.56863Z" fill="#3C3A36"/>
<path d="M23.881 12.1766C23.768 12.0426 21.063 8.88564 17.332 6.95266C17.09 6.82567 16.785 6.92167 16.658 7.16767C16.531 7.41269 16.627 7.71466 16.873 7.84169C19.747 9.32968 22.043 11.6517 22.828 12.4997C21.636 13.7907 16.945 18.4997 12 18.4997C10.322 18.4997 8.63102 18.0947 6.97202 17.2947C6.72602 17.1737 6.42504 17.2787 6.30504 17.5277C6.18405 17.7757 6.28905 18.0747 6.53805 18.1947C8.33303 19.0617 10.171 19.4997 12.0001 19.4997C18.1611 19.4997 23.6511 13.0957 23.8821 12.8227C24.04 12.6366 24.039 12.3636 23.881 12.1766Z" fill="#3C3A36"/>
<path d="M15.281 6.07563C14.143 5.69262 13.039 5.49963 12 5.49963C5.839 5.49963 0.349006 11.9036 0.118006 12.1766C-0.028009 12.3486 -0.040009 12.5987 0.090022 12.7856C0.159022 12.8846 1.81202 15.2316 4.67701 17.1346C4.762 17.1916 4.85701 17.2186 4.95301 17.2186C5.11403 17.2186 5.27303 17.1406 5.36903 16.9936C5.52203 16.7647 5.45903 16.4536 5.22901 16.3016C3.12503 14.9026 1.68503 13.2136 1.14602 12.5267C2.29703 11.2766 7.01903 6.49966 12 6.49966C12.931 6.49966 13.928 6.67568 14.962 7.02265C15.224 7.11663 15.508 6.97165 15.595 6.70863C15.683 6.44665 15.543 6.16366 15.281 6.07563Z" fill="#3C3A36"/>
</g>
<defs>
<clipPath id="clip0">
<rect width="24" height="24" fill="white" transform="translate(0 0.5)"/>
</clipPath>
</defs>
</svg>
